<svg cache-id="45d7e487bce04e9185862c3b4e79aa6d" id="esWqVMZrH0F1" xmlns="http://www.w3.org/2000/svg" xmlns:xlink="http://www.w3.org/1999/xlink" viewBox="0 0 300 300" shape-rendering="geometricPrecision" text-rendering="geometricPrecision"><rect width="60" height="60" rx="0" ry="0" fill="#2360da" stroke-width="0"/><rect width="60" height="60" rx="0" ry="0" transform="translate(0 120)" fill="#2360da" stroke-width="0"/><rect width="60" height="60" rx="0" ry="0" transform="translate(0 240)" fill="#2360da" stroke-width="0"/><rect width="60" height="60" rx="0" ry="0" transform="translate(60 240)" fill="#fff" stroke-width="0"/><rect width="60" height="60" rx="0" ry="0" transform="translate(60 240)" fill="#fff" stroke-width="0"/><rect width="60" height="60" rx="0" ry="0" transform="translate(120 240)" fill="#2360da" stroke-width="0"/><rect width="60" height="60" rx="0" ry="0" transform="translate(240 240)" fill="#2360da" stroke-width="0"/><rect width="60" height="60" rx="0" ry="0" transform="translate(60 120)" fill="#fff" stroke-width="0"/><rect width="60" height="60" rx="0" ry="0" transform="translate(60 120)" fill="#fff" stroke-width="0"/><rect width="60" height="60" rx="0" ry="0" transform="translate(240 180)" fill="#fff" stroke-width="0"/><rect width="60" height="60" rx="0" ry="0" transform="translate(120 120)" fill="#2360da" stroke-width="0"/><rect width="60" height="60" rx="0" ry="0" transform="translate(240 120)" fill="#2360da" stroke-width="0"/><rect width="60" height="60" rx="0" ry="0" transform="translate(0 180)" fill="#fff" stroke-width="0"/><rect width="60" height="60" rx="0" ry="0" transform="translate(0 180)" fill="#fff" stroke-width="0"/><rect width="60" height="60" rx="0" ry="0" transform="translate(60 180)" fill="#2360da" stroke-width="0"/><rect width="60" height="60" rx="0" ry="0" transform="translate(180 180)" fill="#2360da" stroke-width="0"/><rect width="60" height="60" rx="0" ry="0" transform="translate(60 0)" fill="#fff" stroke-width="0"/><rect width="60" height="60" rx="0" ry="0" transform="translate(60 0)" fill="#fff" stroke-width="0"/><rect width="60" height="60" rx="0" ry="0" transform="translate(240 60)" fill="#fff" stroke-width="0"/><rect width="60" height="60" rx="0" ry="0" transform="translate(120 0)" fill="#2360da" stroke-width="0"/><rect width="60" height="60" rx="0" ry="0" transform="translate(240 0)" fill="#2360da" stroke-width="0"/><rect width="60" height="60" rx="0" ry="0" transform="translate(0 60)" fill="#fff" stroke-width="0"/><rect width="60" height="60" rx="0" ry="0" transform="translate(0 60)" fill="#fff" stroke-width="0"/><rect width="60" height="60" rx="0" ry="0" transform="translate(60 60)" fill="#2360da" stroke-width="0"/><rect width="60" height="60" rx="0" ry="0" transform="translate(180 60)" fill="#2360da" stroke-width="0"/></svg>
